# xmcd
#
# Track frame offsets:
#	150
#	15113
#	29541
#	46175
#	63011
#	78602
#	93230
#	107069
#	122152
#	137080
#	152156
#	165559
#	180432
#	194829
#	210086
#	226192
#	243329
#	255478
#	271919
#
# Disc length: 3805 seconds
#
# Revision: 0
# Processed by: cddbd v1.4PL0 Copyright (c) Steve Scherf et al.
# Submitted via: EasyCDDAExtractor 4.6.9.1
#
DISCID=eb0edb13
DTITLE=Various  - Especial Bailao Sertanejo Vol 2
DYEAR=1900
DGENRE=Country
TTITLE0=Pode Passar o Rodo - Daniel
TTITLE1=Peao que é Peao - Rick and Renner
TTITLE2=Esperando na Janela - Rio Negro and Solimoes
TTITLE3=Vou Levar Voce - Zeze Di Camargo 
TTITLE4=Sete Dias - Gian e Giovani 
TTITLE5=Cunhada Boa - Sergio Reis
TTITLE6=Tampa da Panela - Daniel 
TTITLE7=Tá Chovendo Mulher - Guilherme e Santiago
TTITLE8=To de Olho - Milionario e Jose Rico 
TTITLE9=O Casado e o Solteiro - Lucas e Matheus
TTITLE10=Ta no pé, Ta na Boa /Guilherme e Santiago 
TTITLE11=Saudade esta Judiando - Gian e Giovani
TTITLE12=Tem Jeito Não - Gino e Geno 
TTITLE13=Ja to no Grude - Daniel 
TTITLE14=Coracao Virou Peao - Guilherme e Santiago 
TTITLE15=Muita Areia pro meu Caminhao - Lucas e Matheus 
TTITLE16=Toca Sanfoneiro - Sergio Reis 
TTITLE17=Remelexo - Rick and Renner
TTITLE18=Vai Sobrar Mulher - Guilherme e Santiago
EXTD=
EXTT0=
EXTT1=
EXTT2=
EXTT3=
EXTT4=
EXTT5=
EXTT6=
EXTT7=
EXTT8=
EXTT9=
EXTT10=
EXTT11=
EXTT12=
EXTT13=
EXTT14=
EXTT15=
EXTT16=
EXTT17=
EXTT18=
PLAYORDER=
